<svg width="63" height="85" viewBox="0 0 63 85" fill="none" xmlns="http://www.w3.org/2000/svg">
<circle cx="31.5" cy="31.5334" r="30" stroke="white" stroke-width="3"/>
<circle cx="31.5" cy="31.5334" r="26.5" stroke="white" stroke-width="2"/>
<path d="M31.5 67.0334L33.4084 72.9068L39.584 72.9068L34.5878 76.5367L36.4962 82.4101L31.5 78.7802L26.5038 82.4101L28.4122 76.5367L23.416 72.9068L29.5916 72.9068L31.5 67.0334Z" fill="white"/>
<path d="M51.5 61.0334L53.4084 66.9068L59.584 66.9068L54.5878 70.5367L56.4962 76.4101L51.5 72.7802L46.5038 76.4101L48.4122 70.5367L43.416 66.9068L49.5916 66.9068L51.5 61.0334Z" fill="white"/>
<path d="M11.5 61.0334L13.4084 66.9068L19.584 66.9068L14.5878 70.5367L16.4962 76.4101L11.5 72.7802L6.50383 76.4101L8.41219 70.5367L3.41602 66.9068L9.59163 66.9068L11.5 61.0334Z" fill="white"/>
<rect x="21.0137" y="29.0334" width="16.1909" height="6" rx="3" transform="rotate(41.9859 21.0137 29.0334)" fill="white"/>
<rect x="47.8453" y="25.1222" width="26.3081" height="6" rx="3" transform="rotate(135 47.8453 25.1222)" fill="white"/>
</svg>
