<svg width="72" height="72" viewBox="0 0 72 72" fill="none" xmlns="http://www.w3.org/2000/svg">
<g clip-path="url(#clip0_3:105)">
<path d="M12.6634 55.6804C11.6554 55.6804 10.6864 55.9319 9.82672 56.4044C5.29816 50.5992 2.8125 43.3878 2.8125 36C2.8125 17.7001 17.7001 2.8125 36 2.8125C38.2247 2.8125 40.4484 3.03387 42.6094 3.47058C43.3696 3.62439 44.1123 3.1322 44.2661 2.37085C44.4199 1.6095 43.9277 0.86792 43.1664 0.713562C40.8224 0.240051 38.4115 0 36 0C26.3842 0 17.3436 3.74469 10.5441 10.5441C3.74469 17.3436 0 26.3842 0 36C0 44.0887 2.74658 51.9824 7.74701 58.3105C7.10321 59.2723 6.75714 60.4028 6.75714 61.5866C6.75714 63.1642 7.37183 64.6474 8.48749 65.7625C9.6026 66.8782 11.0858 67.4929 12.6634 67.4929C14.241 67.4929 15.7242 66.8782 16.8398 65.7625C17.9555 64.6474 18.5696 63.1637 18.5696 61.5861C18.5696 60.009 17.9555 58.5253 16.8398 57.4102C15.7242 56.2945 14.241 55.6804 12.6634 55.6804ZM14.8508 63.774C14.2668 64.3585 13.4896 64.6804 12.6634 64.6804C11.8372 64.6804 11.0605 64.3585 10.476 63.774C9.89154 63.1895 9.56964 62.4128 9.56964 61.5866C9.56964 60.7599 9.89154 59.9832 10.476 59.3987C11.0599 58.8142 11.8372 58.4929 12.6634 58.4929C13.4896 58.4929 14.2663 58.8148 14.8508 59.3987C15.4352 59.9832 15.7571 60.7599 15.7571 61.5866C15.7571 62.4128 15.4352 63.1895 14.8508 63.774Z" fill="white"/>
<path d="M64.2519 13.6879C65.7806 11.3945 65.5351 8.25897 63.5131 6.23694C62.3974 5.12183 60.9142 4.50714 59.3366 4.50714C57.759 4.50714 56.2758 5.12183 55.1602 6.23694C54.0445 7.3526 53.4304 8.83575 53.4304 10.4134C53.4304 11.991 54.0445 13.4742 55.1602 14.5898C56.2758 15.7055 57.759 16.3196 59.3366 16.3196C60.3446 16.3196 61.3136 16.0681 62.1733 15.5956C66.7018 21.4014 69.1875 28.6122 69.1875 36C69.1875 54.2999 54.2999 69.1875 36 69.1875C33.7972 69.1875 31.5945 68.9705 29.4538 68.5421C28.6925 68.3899 27.9514 68.8837 27.7987 69.6451C27.6466 70.407 28.1404 71.1475 28.9017 71.3002C31.2237 71.7643 33.6121 72 36 72C45.6158 72 54.6564 68.2553 61.4559 61.4559C68.2553 54.6564 72 45.6158 72 36C72 27.9108 69.2529 20.0165 64.2519 13.6879ZM57.1492 12.6013C56.5648 12.0168 56.2429 11.2401 56.2429 10.4134C56.2429 9.58722 56.5648 8.81049 57.1492 8.22601C57.7332 7.64154 58.5104 7.31964 59.3366 7.31964C60.1628 7.31964 60.9401 7.64154 61.5245 8.22601C62.7303 9.43231 62.7303 11.395 61.5245 12.6013C60.9401 13.1852 60.1628 13.5071 59.3366 13.5071C58.5099 13.5071 57.7332 13.1852 57.1492 12.6013Z" fill="white"/>
<path d="M30.197 60.1875C30.197 60.9642 30.8271 61.5938 31.6033 61.5938H40.3962C41.1729 61.5938 41.8024 60.9642 41.8024 60.1875V57.4612C43.6514 56.9636 45.4191 56.2308 47.0803 55.2739L49.0051 57.1987C49.2687 57.4623 49.6263 57.6107 49.9999 57.6107C50.3723 57.6107 50.7305 57.4623 50.9941 57.1981L57.2091 50.9788C57.7579 50.4294 57.7579 49.539 57.2091 48.9902L55.2865 47.0676C56.2434 45.4065 56.9762 43.6388 57.4739 41.7898H60.1897C60.9664 41.7898 61.5959 41.1603 61.5959 40.3835V31.5906C61.5959 30.8139 60.9664 30.1844 60.1897 30.1844H57.4733C56.9756 28.3359 56.2434 26.5682 55.2865 24.9071L57.1987 22.9949C57.4623 22.7313 57.6107 22.3731 57.6107 22.0001C57.6101 21.6271 57.4618 21.269 57.1981 21.0053L50.9782 14.7903C50.4294 14.2416 49.539 14.2416 48.9897 14.7909L47.0803 16.7009C45.4191 15.744 43.6514 15.0112 41.8024 14.5135V11.8125C41.8024 11.0358 41.1729 10.4062 40.3962 10.4062H31.6033C30.8271 10.4062 30.197 11.0358 30.197 11.8125V14.514C28.3486 15.0112 26.5809 15.744 24.9197 16.7009L23.0098 14.7909C22.461 14.2421 21.5706 14.2416 21.0212 14.7903L14.8019 21.0059C14.5377 21.2695 14.3893 21.6271 14.3893 22.0001C14.3893 22.3731 14.5377 22.7313 14.8013 22.9949L16.7135 24.9071C15.7566 26.5682 15.0238 28.3354 14.5261 30.1844H11.8152C11.0385 30.1844 10.409 30.8139 10.409 31.5901L10.4041 40.383C10.4035 40.756 10.5518 41.1141 10.8155 41.3778C11.0792 41.6415 11.4368 41.7898 11.8103 41.7898H14.5261C15.0238 43.6388 15.7566 45.4065 16.7135 47.0676L14.7909 48.9902C14.2421 49.539 14.2416 50.4294 14.7909 50.9788L21.0059 57.1981C21.2695 57.4618 21.6271 57.6107 22.0001 57.6107H22.0007C22.3737 57.6107 22.7313 57.4623 22.9949 57.1987L24.9192 55.2739C26.5809 56.2308 28.3486 56.9636 30.197 57.4612V60.1875ZM25.4707 52.3163C24.9142 51.9565 24.182 52.0345 23.7129 52.5031L22.0007 54.2153L17.7737 49.985L19.4843 48.2739C19.9528 47.8054 20.0308 47.0731 19.671 46.5167C18.3961 44.5435 17.4996 42.3809 17.0074 40.088C16.8679 39.4404 16.2955 38.9773 15.6324 38.9773H13.2171L13.2204 32.9969H15.6324C16.2955 32.9969 16.8679 32.5344 17.0074 31.8862C17.4996 29.5939 18.3961 27.4312 19.671 25.4581C20.0308 24.9016 19.9528 24.1694 19.4843 23.7008L17.7847 22.0007L22.015 17.7737L23.7129 19.4722C24.182 19.9407 24.9137 20.0182 25.4707 19.6589C27.4433 18.384 29.606 17.4875 31.8988 16.9953C32.5464 16.8558 33.0095 16.2828 33.0095 15.6204V13.2188H38.9899V15.6198C38.9899 16.2828 39.4525 16.8558 40.1006 16.9948C42.3929 17.4875 44.5562 18.3834 46.5287 19.6584C47.0852 20.0182 47.8174 19.9407 48.286 19.4716L49.9845 17.7737L54.2148 22.0007L52.5152 23.7003C52.0461 24.1694 51.9686 24.9016 52.3284 25.4581C53.6034 27.4312 54.4993 29.5939 54.9921 31.8862C55.131 32.5344 55.704 32.9969 56.367 32.9969H58.7834V38.9773H56.367C55.704 38.9773 55.1316 39.4404 54.9921 40.088C54.4999 42.3803 53.6034 44.5435 52.3284 46.5161C51.9686 47.0731 52.0466 47.8054 52.5152 48.2739L54.2258 49.9845L49.9988 54.2148L48.2866 52.5031C47.8174 52.034 47.0852 51.9565 46.5287 52.3163C44.5556 53.5913 42.3929 54.4872 40.1006 54.98C39.4525 55.1195 38.9899 55.6919 38.9899 56.3549V58.7812H33.0095V56.3549C33.0095 55.6924 32.5464 55.1195 31.8988 54.98C29.6065 54.4878 27.4438 53.5913 25.4707 52.3163Z" fill="white"/>
<path d="M48.9485 5.31848C49.3187 5.31848 49.6813 5.16797 49.9427 4.90649C50.2042 4.64337 50.3547 4.28082 50.3547 3.91058C50.3547 3.54254 50.2048 3.17944 49.9427 2.91632C49.6813 2.65485 49.3187 2.50433 48.9485 2.50433C48.5771 2.50433 48.2162 2.65485 47.9548 2.91632C47.6927 3.17944 47.5422 3.54089 47.5422 3.91058C47.5422 4.28192 47.6927 4.64337 47.9548 4.90649C48.2162 5.16797 48.5771 5.31848 48.9485 5.31848Z" fill="white"/>
<path d="M23.113 66.7068C22.7433 66.7068 22.3802 66.8573 22.1188 67.1188C21.8573 67.3802 21.7068 67.7433 21.7068 68.113C21.7068 68.4844 21.8573 68.8458 22.1188 69.1073C22.3802 69.3688 22.7433 69.5193 23.113 69.5193C23.4827 69.5193 23.8458 69.3688 24.1073 69.1073C24.3688 68.8458 24.5193 68.4827 24.5193 68.113C24.5193 67.7433 24.3688 67.3802 24.1073 67.1188C23.8458 66.8573 23.4827 66.7068 23.113 66.7068Z" fill="white"/>
<rect x="25.0137" y="31.1538" width="16.1909" height="6" rx="3" transform="rotate(41.9859 25.0137 31.1538)" fill="white"/>
<rect x="51.8453" y="27.2426" width="26.3081" height="6" rx="3" transform="rotate(135 51.8453 27.2426)" fill="white"/>
</g>
<defs>
<clipPath id="clip0_3:105">
<rect width="72" height="72" fill="white"/>
</clipPath>
</defs>
</svg>
