<svg width="68" height="69" viewBox="0 0 68 69" fill="none" xmlns="http://www.w3.org/2000/svg">
<g clip-path="url(#clip0_3:54)">
<path d="M67.8689 37.1745C67.2584 31.0335 64.5148 25.2439 60.1434 20.8724C56.4075 17.1367 51.835 14.7361 47.0237 13.6686V10.2941C48.9888 9.80518 50.4495 8.02639 50.4495 5.91212C50.4495 3.42211 48.4238 1.39642 45.9338 1.39642H36.3711C33.8811 1.39642 31.8554 3.42211 31.8554 5.91212C31.8554 8.02626 33.3161 9.80505 35.2811 10.2941V13.6781C30.4845 14.75 25.9271 17.1473 22.2019 20.8725C21.3867 21.6877 20.635 22.5429 19.9469 23.4317C19.9136 23.4292 19.8802 23.4266 19.8462 23.4266H10.3817C9.64831 23.4266 9.05357 24.0213 9.05357 24.7548C9.05357 25.4883 9.64831 26.0829 10.3817 26.0829H18.1397C17.1659 27.7132 16.3807 29.4254 15.783 31.1878H1.32815C0.594744 31.1878 0 31.7824 0 32.5159C0 33.2495 0.594744 33.8441 1.32815 33.8441H15.0325C14.6497 35.5243 14.43 37.2343 14.3733 38.9491H8.50013C7.76673 38.9491 7.17199 39.5437 7.17199 40.2772C7.17199 41.0108 7.76673 41.6054 8.50013 41.6054H14.4157C14.5278 43.3245 14.8042 45.0346 15.245 46.7104H6.64073C5.90733 46.7104 5.31258 47.305 5.31258 48.0385C5.31258 48.7721 5.90733 49.3667 6.64073 49.3667H16.0926C17.3955 52.8133 19.4317 56.0438 22.2019 58.814C26.5777 63.1897 32.3732 65.934 38.5206 66.5413C39.398 66.6279 40.276 66.6708 41.1529 66.6708C46.3355 66.6708 51.4524 65.1709 55.7941 62.3436C56.4087 61.9433 56.5826 61.1205 56.1823 60.5058C55.782 59.8912 54.9592 59.7173 54.3445 60.1176C44.8407 66.3064 32.1127 64.9683 24.0802 56.9358C14.6554 47.511 14.6554 32.1758 24.0802 22.7509C33.5049 13.3262 48.84 13.3262 58.265 22.7509C66.2868 30.7729 67.6322 43.49 61.4639 52.9892C61.0644 53.6044 61.2393 54.427 61.8544 54.8264C62.4699 55.2259 63.2923 55.051 63.6916 54.4358C66.9873 49.3603 68.4708 43.2302 67.8689 37.1745ZM34.5117 5.91225C34.5117 4.88692 35.3458 4.05285 36.3711 4.05285H45.9338C46.9591 4.05285 47.7932 4.88692 47.7932 5.91225C47.7932 6.93758 46.9591 7.77166 45.9338 7.77166H45.6955H36.6093H36.3711C35.3458 7.77166 34.5117 6.93745 34.5117 5.91225ZM37.9374 13.2214V10.4279H44.3674V13.2167C42.2322 12.9627 40.0721 12.9643 37.9374 13.2214Z" fill="white"/>
<path d="M59.2047 56.5461C58.854 56.5461 58.5127 56.6883 58.2658 56.9353C58.0174 57.1823 57.8765 57.525 57.8765 57.8743C57.8765 58.2236 58.0174 58.5662 58.2658 58.8133C58.5127 59.0616 58.8542 59.2024 59.2047 59.2024C59.5539 59.2024 59.8953 59.0616 60.1436 58.8133C60.3907 58.5662 60.5328 58.2236 60.5328 57.8743C60.5328 57.525 60.3908 57.1823 60.1436 56.9353C59.8953 56.6883 59.5538 56.5461 59.2047 56.5461Z" fill="white"/>
<path d="M41.1727 19.2397C29.812 19.2397 20.5693 28.4823 20.5693 39.8431C20.5693 51.2039 29.812 60.4465 41.1727 60.4465C52.5334 60.4465 61.7761 51.2039 61.7761 39.8431C61.7761 28.4823 52.5334 19.2397 41.1727 19.2397ZM41.1727 57.7902C31.2766 57.7902 23.2256 49.7391 23.2256 39.8431C23.2256 29.9471 31.2766 21.896 41.1727 21.896C51.0689 21.896 59.1198 29.9471 59.1198 39.8431C59.1198 49.7391 51.0689 57.7902 41.1727 57.7902Z" fill="white"/>
<path d="M49.574 29.5634L42.9957 36.1416C42.4456 35.8696 41.8268 35.7159 41.1727 35.7159C40.5184 35.7159 39.8998 35.8696 39.3497 36.1416L36.4056 33.1975C35.8868 32.6789 35.0461 32.6789 34.5272 33.1975C34.0085 33.7161 34.0085 34.5571 34.5272 35.0758L37.4713 38.0199C37.1991 38.57 37.0456 39.1888 37.0456 39.8429C37.0456 42.1185 38.8969 43.97 41.1727 43.97C43.4484 43.97 45.2997 42.1185 45.2997 39.8429C45.2997 39.1888 45.1461 38.57 44.8741 38.0199L51.2593 31.6347L51.4522 31.4417C51.9709 30.923 51.9709 30.0821 51.4522 29.5634C50.9336 29.0448 50.0929 29.0448 49.574 29.5634ZM41.1727 41.3138C40.3617 41.3138 39.7019 40.654 39.7019 39.843C39.7019 39.032 40.3617 38.3722 41.1727 38.3722C41.9836 38.3722 42.6435 39.032 42.6435 39.843C42.6435 40.654 41.9836 41.3138 41.1727 41.3138Z" fill="white"/>
<path d="M55.3732 38.5311H54.1427C53.4093 38.5311 52.8146 39.1257 52.8146 39.8592C52.8146 40.5927 53.4093 41.1873 54.1427 41.1873H55.3732C56.1066 41.1873 56.7013 40.5927 56.7013 39.8592C56.7013 39.1257 56.1066 38.5311 55.3732 38.5311Z" fill="white"/>
<path d="M28.2027 38.4987H26.9724C26.239 38.4987 25.6442 39.0933 25.6442 39.8268C25.6442 40.5604 26.239 41.155 26.9724 41.155H28.2027C28.9361 41.155 29.5308 40.5604 29.5308 39.8268C29.5308 39.0933 28.9361 38.4987 28.2027 38.4987Z" fill="white"/>
<path d="M41.1888 28.2012C41.9222 28.2012 42.517 27.6066 42.517 26.8731V25.6427C42.517 24.9092 41.9222 24.3146 41.1888 24.3146C40.4555 24.3146 39.8607 24.9092 39.8607 25.6427V26.8731C39.8607 27.6066 40.4555 28.2012 41.1888 28.2012Z" fill="white"/>
<path d="M41.1563 51.485C40.4229 51.485 39.8282 52.0796 39.8282 52.8132V54.0435C39.8282 54.7771 40.4229 55.3717 41.1563 55.3717C41.8897 55.3717 42.4844 54.7771 42.4844 54.0435V52.8132C42.4844 52.0796 41.8897 51.485 41.1563 51.485Z" fill="white"/>
<path d="M1.32812 46.7099C0.978828 46.7099 0.636172 46.852 0.389141 47.099C0.142109 47.3461 0 47.6887 0 48.038C0 48.3886 0.141977 48.73 0.389141 48.977C0.636305 49.224 0.978828 49.3661 1.32812 49.3661C1.67742 49.3661 2.02008 49.224 2.26698 48.977C2.51401 48.73 2.65625 48.3873 2.65625 48.038C2.65625 47.6887 2.51414 47.3461 2.26698 47.099C2.02008 46.852 1.67742 46.7099 1.32812 46.7099Z" fill="white"/>
</g>
<defs>
<clipPath id="clip0_3:54">
<rect width="68" height="68" fill="white" transform="translate(0 0.0334473)"/>
</clipPath>
</defs>
</svg>
