<svg width="64" height="65" viewBox="0 0 64 65" fill="none" xmlns="http://www.w3.org/2000/svg">
<g clip-path="url(#clip0_3:98)">
<path d="M28.0821 36.6228H3.95856C2.85553 36.6228 2.85553 34.9553 3.95856 34.9553H25.7447C26.9844 34.9553 26.9859 33.0808 25.7447 33.0808H5.8067V5.45044H56.7047V33.0808H50.671C49.4317 33.0808 49.4293 34.9553 50.671 34.9553H58.8922C59.9947 34.9553 59.9947 36.6228 58.8922 36.6228H48.501C47.2618 36.6228 47.2598 38.4978 48.501 38.4978H58.8922C60.3853 38.4978 61.6002 37.2825 61.6002 35.7893C61.6002 34.2957 60.3853 33.0808 58.8922 33.0808H58.5797V5.45044H58.8922C60.3853 5.45044 61.6002 4.23511 61.6002 2.74194C61.6002 1.24829 60.3853 0.0334473 58.8922 0.0334473H3.95856C2.4649 0.0334473 1.25006 1.24829 1.25006 2.74194C1.25006 4.22632 2.45074 5.43579 3.9317 5.45044V33.0808C2.45074 33.0955 1.25006 34.3044 1.25006 35.7893C1.25006 37.2825 2.4649 38.4978 3.95856 38.4978H28.0821C29.3214 38.4978 29.3233 36.6228 28.0821 36.6228ZM3.95856 1.90845H58.8922C59.9947 1.90845 59.9947 3.57544 58.8922 3.57544H3.95856C2.85504 3.57544 2.85651 1.90845 3.95856 1.90845Z" fill="white"/>
<path d="M17.3848 8.84155C17.3848 8.01831 16.7149 7.34888 15.8917 7.34888H10.0064C9.18317 7.34888 8.51373 8.01831 8.51373 8.84155V12.4773C8.51373 13.3005 9.18317 13.97 10.0064 13.97H15.8917C16.7149 13.97 17.3848 13.3005 17.3848 12.4773V8.84155ZM15.5098 12.095H10.3882V9.22339H15.5098V12.095Z" fill="white"/>
<path d="M17.3848 17.5295C17.3848 16.7063 16.7149 16.0369 15.8917 16.0369H10.0064C9.18317 16.0369 8.51373 16.7063 8.51373 17.5295V21.1653C8.51373 21.9885 9.18317 22.658 10.0064 22.658H15.8917C16.7149 22.658 17.3848 21.9885 17.3848 21.1653V17.5295ZM15.5098 20.783H10.3882V17.9114H15.5098V20.783Z" fill="white"/>
<path d="M15.8917 24.7248H10.0064C9.18317 24.7248 8.51373 25.3942 8.51373 26.2175V29.8532C8.51373 30.6764 9.18317 31.3459 10.0064 31.3459H15.8917C16.7149 31.3459 17.3848 30.6764 17.3848 29.8532V26.2175C17.3848 25.3942 16.7149 24.7248 15.8917 24.7248ZM15.5098 29.4714H10.3882V26.5993H15.5098V29.4714Z" fill="white"/>
<path d="M57.044 42.6311C56.023 42.1921 54.9522 41.8787 53.8614 41.6663L44.3629 39.8196V37.4724C47.0303 35.6531 48.4742 33.0759 48.7886 30.1819C50.1729 30.072 51.2662 28.9104 51.2662 27.4983V25.5715C53.5235 24.5901 53.2183 21.2961 50.8301 20.7405V19.9963C50.8301 13.3113 45.4107 7.89136 38.7252 7.89136H37.7105C31.025 7.89136 25.6055 13.3113 25.6055 19.9963V20.74C23.2183 21.2957 22.9122 24.5901 25.17 25.5715V27.4978C25.17 28.9104 26.2628 30.072 27.6475 30.1814C27.9605 33.0623 29.3868 35.6399 32.0733 37.4724V39.8191L22.5748 41.6663C21.4839 41.8787 20.4131 42.1917 19.3922 42.6311C15.5381 44.2898 13.6578 46.9377 13.6578 50.678V52.6038C13.6578 53.843 15.5323 53.845 15.5323 52.6038V50.6785C15.5323 47.8694 16.8087 45.927 19.6085 44.5852C19.7213 45.0842 21.439 49.7468 21.439 56.2615V62.1589H17.4776C16.4034 62.1589 15.5323 61.2878 15.5323 60.2136V56.3337C15.5323 55.0945 13.6578 55.0925 13.6578 56.3337V60.2136C13.6578 62.3235 15.3677 64.0334 17.4776 64.0334H58.9586C61.0684 64.0334 62.7784 62.3235 62.7784 60.2136V50.6785C62.7784 46.9377 60.8975 44.2898 57.044 42.6311ZM55.0797 43.8884C54.9493 44.4607 53.1221 49.3796 53.1221 56.2615V62.1589H39.1553V57.4358C39.1553 56.0315 39.5826 54.6819 40.3907 53.5334C41.6011 51.8123 46.587 44.6184 48.0655 42.4495C54.795 43.8044 53.9835 43.5237 55.0797 43.8884ZM37.5787 52.4543C36.8594 51.4319 35.9254 50.0901 34.9503 48.6838C35.2398 48.6199 35.5225 48.5085 35.7877 48.3499L38.2178 46.8923L40.648 48.3499C40.9131 48.5085 41.1959 48.6199 41.4854 48.6838C40.5113 50.0896 39.5772 51.4309 38.8575 52.4543C38.6177 52.7952 38.4044 53.1497 38.2178 53.5154C38.0318 53.1497 37.8184 52.7952 37.5787 52.4543ZM36.3043 45.8538C34.8199 46.6487 34.9254 46.8865 34.251 46.8064C33.8316 46.7566 33.4551 46.5232 33.2149 46.1755C32.0943 44.5525 31.0567 43.0466 30.3775 42.0588L32.2549 41.6941C32.8614 43.5359 34.8599 45.0007 36.3043 45.8538ZM46.0587 42.0593C45.3775 43.0491 44.3375 44.5593 43.2139 46.1863C42.7554 46.8494 41.9337 46.9343 41.6124 46.7415L40.1314 45.8538C41.5762 45.0007 43.5743 43.5359 44.1807 41.6941L46.0587 42.0593ZM32.7579 11.0471V12.2229C32.7579 13.4622 34.6324 13.4641 34.6324 12.2229V10.2395C35.4737 9.97339 36.3619 9.81372 37.2808 9.77563V14.4109C37.2808 15.6501 39.1553 15.6521 39.1553 14.4109V9.77563C40.0743 9.81372 40.9625 9.97388 41.8033 10.2395V12.2229C41.8033 13.4622 43.6783 13.4641 43.6783 12.2229V11.0476C49.5386 14.3035 48.9156 20.5261 48.9556 20.6746H27.4805C27.5128 20.554 26.9278 14.2869 32.7579 11.0471ZM26.1846 22.5491H50.2515C51.1505 22.5491 51.149 23.907 50.2515 23.907H26.1846C25.2857 23.907 25.2872 22.5491 26.1846 22.5491ZM29.463 29.2327C29.4517 28.7229 29.0357 28.3157 28.5255 28.3157C28.3692 28.2766 27.045 28.5588 27.045 27.4983V25.782H49.3917V27.4983C49.3917 28.5574 48.0313 28.2854 47.9107 28.3157C47.4005 28.3157 46.9839 28.7229 46.9732 29.2327C46.9229 31.5764 45.9273 33.7532 44.2408 35.2048C40.6607 38.2874 35.7759 38.2878 32.1954 35.2048C30.5089 33.7532 29.5128 31.5759 29.463 29.2327ZM42.4879 38.5076V40.592C42.4879 42.2683 39.6431 44.0432 38.2178 44.7605C36.794 44.0437 33.9556 42.2732 33.9478 40.5989C33.9478 40.5969 33.9478 40.5945 33.9478 40.592V38.5076C36.6763 39.6843 39.7564 39.6858 42.4879 38.5076ZM21.3565 43.8884C22.4512 43.5247 21.6378 43.8049 28.3702 42.4495L28.9058 43.2278C29.4522 44.0222 30.2086 45.1204 31.0469 46.3352C32.5762 48.552 34.6856 51.6003 36.0455 53.533C36.8536 54.6819 37.2808 56.031 37.2808 57.4358V62.1584H23.314V56.261C23.314 49.2024 21.5313 44.658 21.3565 43.8884ZM60.9034 60.2136C60.9034 61.2859 60.0313 62.1584 58.9586 62.1584H54.9971V56.2615C54.9971 49.9255 56.7584 44.8918 56.8282 44.5852C59.6275 45.927 60.9039 47.8694 60.9039 50.6785V60.2136H60.9034Z" fill="white"/>
<path d="M43.3281 54.2565C42.4443 54.2565 41.725 54.9757 41.725 55.8595V57.7379C41.725 58.6222 42.4443 59.3409 43.3281 59.3409H48.8412C49.725 59.3409 50.4443 58.6222 50.4443 57.7379V55.8595C50.4443 54.9757 49.725 54.2565 48.8412 54.2565H43.3281ZM48.5693 57.4659H43.6V56.1315H48.5693V57.4659Z" fill="white"/>
</g>
<defs>
<clipPath id="clip0_3:98">
<rect width="64" height="64" fill="white" transform="translate(0 0.0334473)"/>
</clipPath>
</defs>
</svg>
