<svg width="41" height="42" viewBox="0 0 41 42" fill="none" xmlns="http://www.w3.org/2000/svg">
<path d="M9.71319 32.0133C9.19052 31.4253 9.71319 29.9988 9.71319 29.9988C9.71319 29.9988 10.7084 30.4343 10.9723 31.006C11.2195 31.5418 10.9723 32.5169 10.9723 32.5169C10.9723 32.5169 10.065 32.4091 9.71319 32.0133Z" fill="#D6E6A9"/>
<path d="M11.9669 30.9102C11.1881 30.7991 10.6653 29.3726 10.6653 29.3726C10.6653 29.3726 11.7063 29.062 12.2771 29.3279C12.812 29.5771 13.2533 30.4811 13.2533 30.4811C13.2533 30.4811 12.4912 30.985 11.9669 30.9102Z" fill="#D6E6A9"/>
<path d="M11.1188 28.8458C10.3322 28.8311 9.63845 27.4794 9.63845 27.4794C9.63845 27.4794 10.6335 27.0435 11.2326 27.2374C11.794 27.4191 12.3429 28.2622 12.3429 28.2622C12.3429 28.2622 11.6483 28.8557 11.1188 28.8458Z" fill="#D6E6A9"/>
<path d="M7.89825 29.1185C7.31954 28.5856 7.69733 27.114 7.69733 27.114C7.69733 27.114 8.73101 27.4481 9.0506 27.9907C9.35006 28.4991 9.20129 29.4941 9.20129 29.4941C9.20129 29.4941 8.28781 29.4773 7.89825 29.1185Z" fill="#D6E6A9"/>
<path d="M7.27111 31.5212C6.84698 30.8586 7.58661 29.5315 7.58661 29.5315C7.58661 29.5315 8.50133 30.1175 8.67241 30.7235C8.83272 31.2914 8.43579 32.2158 8.43579 32.2158C8.43579 32.2158 7.55662 31.9672 7.27111 31.5212Z" fill="#78FF96"/>
<path d="M5.881 32.9192C5.66852 32.1618 6.76299 31.1081 6.76299 31.1081C6.76299 31.1081 7.46706 31.9353 7.45399 32.5649C7.44175 33.1548 6.7925 33.9233 6.7925 33.9233C6.7925 33.9233 6.02403 33.4291 5.881 32.9192Z" fill="#D6E6A9"/>
<path d="M5.37746 29.3936C5.16498 28.6361 6.25945 27.5824 6.25945 27.5824C6.25945 27.5824 6.96352 28.4097 6.95045 29.0393C6.93821 29.6292 6.28896 30.3977 6.28896 30.3977C6.28896 30.3977 5.52049 29.9035 5.37746 29.3936Z" fill="#78FF96"/>
<path d="M3.77647 31.1369C3.79997 30.3506 5.15923 29.6719 5.15923 29.6719C5.15923 29.6719 5.58403 30.6717 5.3835 31.2686C5.19559 31.828 4.34643 32.3674 4.34643 32.3674C4.34643 32.3674 3.76066 31.6663 3.77647 31.1369Z" fill="#D6E6A9"/>
<path d="M1.42494 31.369C1.65703 30.6173 3.14795 30.3251 3.14795 30.3251C3.14795 30.3251 3.2911 31.402 2.93883 31.9239C2.60874 32.413 1.64657 32.7068 1.64657 32.7068C1.64657 32.7068 1.2687 31.875 1.42494 31.369Z" fill="#D6E6A9"/>
<path d="M3.54623 27.9664C3.97476 27.3066 5.48878 27.4327 5.48878 27.4327C5.48878 27.4327 5.33245 28.5078 4.85105 28.9137C4.39996 29.294 3.39413 29.3139 3.39413 29.3139C3.39413 29.3139 3.25776 28.4105 3.54623 27.9664Z" fill="#D6E6A9"/>
<path d="M0.525652 29.1099C1.05383 28.5269 2.52842 28.8926 2.52842 28.8926C2.52842 28.8926 2.20282 29.929 1.6629 30.253C1.15697 30.5566 0.160819 30.416 0.160819 30.416C0.160819 30.416 0.170114 29.5024 0.525652 29.1099Z" fill="#D6E6A9"/>
<path d="M1.64596 26.684C2.33488 26.3041 3.61074 27.1289 3.61074 27.1289C3.61074 27.1289 2.96616 28.0033 2.35027 28.1344C1.77316 28.2573 0.876683 27.8007 0.876683 27.8007C0.876683 27.8007 1.18221 26.9397 1.64596 26.684Z" fill="#78FF96"/>
<path d="M4.32868 25.2277C5.06075 24.9396 6.2199 25.9217 6.2199 25.9217C6.2199 25.9217 5.46818 26.7059 4.84054 26.7567C4.25242 26.8043 3.42213 26.2362 3.42213 26.2362C3.42213 26.2362 3.83589 25.4216 4.32868 25.2277Z" fill="#D6E6A9"/>
<path d="M1.61526 23.9315C2.39695 23.8425 3.26259 25.0911 3.26259 25.0911C3.26259 25.0911 2.33358 25.6542 1.71418 25.5409C1.13377 25.4347 0.478684 24.6712 0.478684 24.6712C0.478684 24.6712 1.08908 23.9913 1.61526 23.9315Z" fill="#78FF96"/>
<path d="M3.81832 22.8842C4.60178 22.9557 5.19606 24.3539 5.19606 24.3539C5.19606 24.3539 4.17212 24.7168 3.5886 24.4802C3.04181 24.2584 2.55529 23.3778 2.55529 23.3778C2.55529 23.3778 3.29093 22.836 3.81832 22.8842Z" fill="#D6E6A9"/>
<path d="M5.37128 21.0872C5.95076 21.6193 5.57511 23.0914 5.57511 23.0914C5.57511 23.0914 4.54094 22.7588 4.22057 22.2167C3.92037 21.7087 4.0677 20.7135 4.0677 20.7135C4.0677 20.7135 4.9812 20.729 5.37128 21.0872Z" fill="#D6E6A9"/>
<path d="M1.91386 20.9229C2.67074 20.7083 3.72757 21.7997 3.72757 21.7997C3.72757 21.7997 2.90229 22.5061 2.2727 22.4949C1.68275 22.4843 0.912422 21.8373 0.912422 21.8373C0.912422 21.8373 1.40437 21.0674 1.91386 20.9229Z" fill="#D6E6A9"/>
<path d="M2.36763 18.7394C3.14383 18.8677 3.63505 20.3053 3.63505 20.3053C3.63505 20.3053 2.58747 20.5929 2.02266 20.3145C1.49341 20.0537 1.07209 19.1401 1.07209 19.1401C1.07209 19.1401 1.84513 18.6531 2.36763 18.7394Z" fill="#78FF96"/>
<path d="M4.76931 18.0439C5.39038 18.5269 5.1364 20.0248 5.1364 20.0248C5.1364 20.0248 4.07849 19.7779 3.71485 19.2638C3.37411 18.7821 3.43954 17.7782 3.43954 17.7782C3.43954 17.7782 4.35125 17.7189 4.76931 18.0439Z" fill="#D6E6A9"/>
<path d="M7.33721 19.4266C7.49816 20.1967 6.33516 21.1742 6.33516 21.1742C6.33516 21.1742 5.68844 20.3014 5.74391 19.6741C5.79589 19.0864 6.49545 18.3634 6.49545 18.3634C6.49545 18.3634 7.22887 18.9082 7.33721 19.4266Z" fill="#78FF96"/>
<path d="M10.5387 19.9849C9.94063 20.496 8.52454 19.9457 8.52454 19.9457C8.52454 19.9457 8.97935 18.9592 9.55611 18.7065C10.0966 18.4697 11.0667 18.7359 11.0667 18.7359C11.0667 18.7359 10.9413 19.6408 10.5387 19.9849Z" fill="#D6E6A9"/>
<path d="M10.3477 21.4381C10.8722 22.0245 10.3539 23.4526 10.3539 23.4526C10.3539 23.4526 9.35734 23.0201 9.09172 22.4492C8.84281 21.9142 9.08708 20.9383 9.08708 20.9383C9.08708 20.9383 9.99466 21.0434 10.3477 21.4381Z" fill="#D6E6A9"/>
<path d="M12.6536 20.579C12.1875 21.2128 10.6833 20.9991 10.6833 20.9991C10.6833 20.9991 10.9017 19.935 11.4059 19.5577C11.8783 19.2041 12.8836 19.2426 12.8836 19.2426C12.8836 19.2426 12.9673 20.1524 12.6536 20.579Z" fill="#D6E6A9"/>
<path d="M14.0489 22.1603C13.3829 22.579 12.0619 21.8287 12.0619 21.8287C12.0619 21.8287 12.6552 20.9188 13.2626 20.7526C13.8317 20.5969 14.7529 21.0012 14.7529 21.0012C14.7529 21.0012 14.4972 21.8784 14.0489 22.1603Z" fill="#78FF96"/>
<path d="M12.4931 22.9058C12.7677 23.643 11.7644 24.7839 11.7644 24.7839C11.7644 24.7839 10.9941 24.0179 10.9549 23.3894C10.9182 22.8005 11.5014 21.9808 11.5014 21.9808C11.5014 21.9808 12.3082 22.4095 12.4931 22.9058Z" fill="#78FF96"/>
<path d="M9.37771 23.4889C10.0964 23.809 10.2087 25.3241 10.2087 25.3241C10.2087 25.3241 9.12242 25.3378 8.64621 24.9259C8.19998 24.5398 8.02299 23.5495 8.02299 23.5495C8.02299 23.5495 8.89393 23.2735 9.37771 23.4889Z" fill="#D6E6A9"/>
<path d="M14.4445 24.003C14.9464 24.6089 14.3743 26.0163 14.3743 26.0163C14.3743 26.0163 13.3949 25.5464 13.1511 24.9658C12.9226 24.4218 13.2037 23.4559 13.2037 23.4559C13.2037 23.4559 14.1066 23.5952 14.4445 24.003Z" fill="#78FF96"/>
<path d="M15.1404 22.396C15.912 22.2424 16.8783 23.4148 16.8783 23.4148C16.8783 23.4148 15.9993 24.0531 15.3726 23.9916C14.7854 23.934 14.0692 23.2275 14.0692 23.2275C14.0692 23.2275 14.621 22.4994 15.1404 22.396Z" fill="#D6E6A9"/>
<path d="M16.962 24.4926C17.5824 24.9764 17.3263 26.4739 17.3263 26.4739C17.3263 26.4739 16.2688 26.2255 15.9059 25.7109C15.5658 25.2288 15.6326 24.225 15.6326 24.225C15.6326 24.225 16.5444 24.1669 16.962 24.4926Z" fill="#D6E6A9"/>
<path d="M8.37718 21.7994C8.26721 22.5784 6.84148 23.1032 6.84148 23.1032C6.84148 23.1032 6.52938 22.0626 6.79443 21.4915C7.0428 20.9562 7.94621 20.5136 7.94621 20.5136C7.94621 20.5136 8.4512 21.275 8.37718 21.7994Z" fill="#D6E6A9"/>
<path d="M6.65152 13.7608C7.4332 13.6719 8.29884 14.9204 8.29884 14.9204C8.29884 14.9204 7.36984 15.4835 6.75043 15.3702C6.17002 15.264 5.51494 14.5005 5.51494 14.5005C5.51494 14.5005 6.12533 13.8207 6.65152 13.7608Z" fill="#78FF96"/>
<path d="M8.85457 12.7128C9.63804 12.7843 10.2323 14.1826 10.2323 14.1826C10.2323 14.1826 9.20837 14.5454 8.62485 14.3088C8.07806 14.087 7.59154 13.2065 7.59154 13.2065C7.59154 13.2065 8.32719 12.6646 8.85457 12.7128Z" fill="#D6E6A9"/>
<path d="M10.4077 10.9158C10.9871 11.4479 10.6115 12.92 10.6115 12.92C10.6115 12.92 9.57732 12.5874 9.25695 12.0453C8.95675 11.5373 9.10407 10.5421 9.10407 10.5421C9.10407 10.5421 10.0176 10.5576 10.4077 10.9158Z" fill="#D6E6A9"/>
<path d="M6.95012 10.7518C7.707 10.5371 8.76382 11.6286 8.76382 11.6286C8.76382 11.6286 7.93854 12.335 7.30896 12.3237C6.71901 12.3132 5.94868 11.6661 5.94868 11.6661C5.94868 11.6661 6.44063 10.8962 6.95012 10.7518Z" fill="#D6E6A9"/>
<path d="M7.40406 8.56831C8.18027 8.69652 8.67149 10.1342 8.67149 10.1342C8.67149 10.1342 7.62391 10.4218 7.0591 10.1434C6.52985 9.88253 6.10853 8.96898 6.10853 8.96898C6.10853 8.96898 6.88156 8.482 7.40406 8.56831Z" fill="#D6E6A9"/>
<path d="M9.80557 7.87329C10.4266 8.35621 10.1727 9.8541 10.1727 9.8541C10.1727 9.8541 9.11474 9.6072 8.75111 9.09312C8.41036 8.61141 8.47579 7.60752 8.47579 7.60752C8.47579 7.60752 9.3875 7.54821 9.80557 7.87329Z" fill="#D6E6A9"/>
<path d="M9.40768 5.35498C10.0287 5.8379 9.77476 7.33579 9.77476 7.33579C9.77476 7.33579 8.71686 7.08889 8.35322 6.57481C8.01248 6.0931 8.07791 5.08921 8.07791 5.08921C8.07791 5.08921 8.98961 5.0299 9.40768 5.35498Z" fill="#D6E6A9"/>
<path d="M12.4295 13.4128C13.0506 13.8958 12.7966 15.3936 12.7966 15.3936C12.7966 15.3936 11.7387 15.1467 11.3751 14.6327C11.0343 14.151 11.0998 13.1471 11.0998 13.1471C11.0998 13.1471 12.0115 13.0878 12.4295 13.4128Z" fill="#D6E6A9"/>
<path d="M10.3002 14.8457C11.0868 14.8369 11.8208 16.1671 11.8208 16.1671C11.8208 16.1671 10.8393 16.6326 10.2347 16.4568C9.6681 16.2921 9.09417 15.4658 9.09417 15.4658C9.09417 15.4658 9.77061 14.8517 10.3002 14.8457Z" fill="#78FF96"/>
<path d="M14.1538 16.1663C14.5783 16.8287 13.8393 18.1561 13.8393 18.1561C13.8393 18.1561 12.9243 17.5706 12.7529 16.9647C12.5923 16.3969 12.9888 15.4723 12.9888 15.4723C12.9888 15.4723 13.8681 15.7204 14.1538 16.1663Z" fill="#D6E6A9"/>
<path d="M10.0518 16.838C10.8139 16.6427 11.8426 17.7607 11.8426 17.7607C11.8426 17.7607 10.9997 18.4459 10.3706 18.4186C9.78108 18.3931 9.02745 17.7266 9.02745 17.7266C9.02745 17.7266 9.53882 16.9695 10.0518 16.838Z" fill="#78FF96"/>
<path d="M7.86126 16.3386C8.48308 16.8205 8.23143 18.3188 8.23143 18.3188C8.23143 18.3188 7.17314 18.0736 6.8087 17.56C6.46721 17.0789 6.53108 16.0749 6.53108 16.0749C6.53108 16.0749 7.44269 16.0142 7.86126 16.3386Z" fill="#D6E6A9"/>
<path d="M5.88257 15.9313C6.50438 16.4133 6.25274 17.9116 6.25274 17.9116C6.25274 17.9116 5.19444 17.6663 4.83001 17.1528C4.48851 16.6716 4.55238 15.6676 4.55238 15.6676C4.55238 15.6676 5.46399 15.6069 5.88257 15.9313Z" fill="#D6E6A9"/>
<path d="M2.94684 13.3148C3.71767 13.4722 4.15439 14.9273 4.15439 14.9273C4.15439 14.9273 3.09672 15.1753 2.5428 14.8758C2.02376 14.5952 1.63714 13.6664 1.63714 13.6664C1.63714 13.6664 2.42796 13.2089 2.94684 13.3148Z" fill="#D6E6A9"/>
<path d="M1.79624 16.0907C2.52651 15.7981 3.69171 16.773 3.69171 16.773C3.69171 16.773 2.94485 17.5619 2.31754 17.6165C1.72972 17.6677 0.895934 17.1048 0.895934 17.1048C0.895934 17.1048 1.30466 16.2877 1.79624 16.0907Z" fill="#D6E6A9"/>
<path d="M12.3735 9.25547C12.5344 10.0256 11.3714 11.0031 11.3714 11.0031C11.3714 11.0031 10.7247 10.1302 10.7802 9.503C10.8321 8.91525 11.5317 8.19228 11.5317 8.19228C11.5317 8.19228 12.2651 8.73709 12.3735 9.25547Z" fill="#D6E6A9"/>
<path d="M15.5749 9.81426C14.9769 10.3254 13.5608 9.77507 13.5608 9.77507C13.5608 9.77507 14.0156 8.78852 14.5924 8.53582C15.1328 8.29903 16.103 8.56521 16.103 8.56521C16.103 8.56521 15.9775 9.47019 15.5749 9.81426Z" fill="#D6E6A9"/>
<path d="M15.3841 11.2667C15.9086 11.8531 15.3903 13.2812 15.3903 13.2812C15.3903 13.2812 14.3937 12.8487 14.1281 12.2778C13.8792 11.7429 14.1235 10.7669 14.1235 10.7669C14.1235 10.7669 15.031 10.872 15.3841 11.2667Z" fill="#D6E6A9"/>
<path d="M17.6899 10.4079C17.2238 11.0417 15.7197 10.828 15.7197 10.828C15.7197 10.828 15.9381 9.76383 16.4423 9.38654C16.9147 9.03299 17.9199 9.07147 17.9199 9.07147C17.9199 9.07147 18.0037 9.98126 17.6899 10.4079Z" fill="#D6E6A9"/>
<path d="M19.0852 11.9891C18.4192 12.4079 17.0981 11.6576 17.0981 11.6576C17.0981 11.6576 17.6915 10.7476 18.2988 10.5814C18.868 10.4257 19.7891 10.8301 19.7891 10.8301C19.7891 10.8301 19.5335 11.7072 19.0852 11.9891Z" fill="#78FF96"/>
<path d="M17.5295 12.7344C17.8041 13.4716 16.8008 14.6125 16.8008 14.6125C16.8008 14.6125 16.0305 13.8465 15.9913 13.218C15.9545 12.6291 16.5378 11.8094 16.5378 11.8094C16.5378 11.8094 17.3446 12.2381 17.5295 12.7344Z" fill="#D6E6A9"/>
<path d="M14.4141 13.3178C15.1328 13.6378 15.245 15.1529 15.245 15.1529C15.245 15.1529 14.1588 15.1667 13.6826 14.7547C13.2364 14.3687 13.0594 13.3783 13.0594 13.3783C13.0594 13.3783 13.9303 13.1023 14.4141 13.3178Z" fill="#D6E6A9"/>
<path d="M19.4807 13.8316C19.9826 14.4375 19.4106 15.8449 19.4106 15.8449C19.4106 15.8449 18.4312 15.375 18.1873 14.7945C17.9589 14.2504 18.2399 13.2845 18.2399 13.2845C18.2399 13.2845 19.1429 13.4238 19.4807 13.8316Z" fill="#78FF96"/>
<path d="M20.1768 12.2246C20.9484 12.0711 21.9148 13.2434 21.9148 13.2434C21.9148 13.2434 21.0357 13.8817 20.4091 13.8202C19.8218 13.7626 19.1056 13.0561 19.1056 13.0561C19.1056 13.0561 19.6574 12.328 20.1768 12.2246Z" fill="#D6E6A9"/>
<path d="M21.9981 14.3212C22.6185 14.805 22.3625 16.3025 22.3625 16.3025C22.3625 16.3025 21.3049 16.0541 20.942 15.5396C20.6019 15.0574 20.6687 14.0536 20.6687 14.0536C20.6687 14.0536 21.5805 13.9955 21.9981 14.3212Z" fill="#78FF96"/>
<path d="M19.6544 17.6694C18.873 17.7612 18.0028 16.5159 18.0028 16.5159C18.0028 16.5159 18.9298 15.9494 19.5496 16.0604C20.1304 16.1645 20.7883 16.9256 20.7883 16.9256C20.7883 16.9256 20.1804 17.6076 19.6544 17.6694Z" fill="#78FF96"/>
<path d="M17.9291 17.6734C17.8601 18.4571 16.4638 19.0559 16.4638 19.0559C16.4638 19.0559 16.0976 18.0331 16.3324 17.4488C16.5523 16.9013 17.4313 16.412 17.4313 16.412C17.4313 16.412 17.9755 17.1458 17.9291 17.6734Z" fill="#D6E6A9"/>
<path d="M19.2196 19.503C19.4123 20.2657 18.2908 21.2906 18.2908 21.2906C18.2908 21.2906 17.6084 20.4453 17.6379 19.8163C17.6655 19.2269 18.3345 18.4755 18.3345 18.4755C18.3345 18.4755 19.0899 18.9895 19.2196 19.503Z" fill="#D6E6A9"/>
<path d="M20.5386 18.3512C21.3013 18.5442 21.6698 20.0181 21.6698 20.0181C21.6698 20.0181 20.6018 20.2166 20.0624 19.8917C19.557 19.5872 19.214 18.6415 19.214 18.6415C19.214 18.6415 20.0252 18.2212 20.5386 18.3512Z" fill="#D6E6A9"/>
<path d="M21.2817 21.0274C21.6339 21.7309 20.7589 22.9729 20.7589 22.9729C20.7589 22.9729 19.9109 22.294 19.8044 21.6734C19.7046 21.0919 20.1965 20.2143 20.1965 20.2143C20.1965 20.2143 21.0447 20.5538 21.2817 21.0274Z" fill="#D6E6A9"/>
<path d="M38.7924 15.655C38.011 15.7468 37.1408 14.5015 37.1408 14.5015C37.1408 14.5015 38.0678 13.935 38.6876 14.046C39.2684 14.1501 39.9263 14.9112 39.9263 14.9112C39.9263 14.9112 39.3184 15.5932 38.7924 15.655Z" fill="#D6E6A9"/>
<path d="M37.0673 15.659C36.9983 16.4427 35.6021 17.0415 35.6021 17.0415C35.6021 17.0415 35.2359 16.0187 35.4706 15.4344C35.6906 14.8869 36.5696 14.3976 36.5696 14.3976C36.5696 14.3976 37.1138 15.1314 37.0673 15.659Z" fill="#78FF96"/>
<path d="M38.3575 17.4881C38.5502 18.2508 37.4287 19.2757 37.4287 19.2757C37.4287 19.2757 36.7464 18.4304 36.7758 17.8014C36.8034 17.212 37.4724 16.4607 37.4724 16.4607C37.4724 16.4607 38.2278 16.9746 38.3575 17.4881Z" fill="#D6E6A9"/>
<path d="M39.6766 16.3368C40.4392 16.5298 40.8078 18.0037 40.8078 18.0037C40.8078 18.0037 39.7397 18.2022 39.2003 17.8773C38.6949 17.5728 38.3519 16.6271 38.3519 16.6271C38.3519 16.6271 39.1632 16.2068 39.6766 16.3368Z" fill="#78FF96"/>
<path d="M40.4197 19.013C40.7718 19.7165 39.8969 20.9585 39.8969 20.9585C39.8969 20.9585 39.0488 20.2796 38.9423 19.659C38.8426 19.0775 39.3344 18.1999 39.3344 18.1999C39.3344 18.1999 40.1826 18.5394 40.4197 19.013Z" fill="#D6E6A9"/>
<path d="M13.4136 11.628C13.3036 12.407 11.8779 12.9318 11.8779 12.9318C11.8779 12.9318 11.5658 11.8913 11.8308 11.3201C12.0792 10.7849 12.9826 10.3422 12.9826 10.3422C12.9826 10.3422 13.4876 11.1036 13.4136 11.628Z" fill="#78FF96"/>
<path d="M13.4306 5.79153C14.1825 6.0231 14.4757 7.51381 14.4757 7.51381C14.4757 7.51381 13.3989 7.65772 12.8767 7.30582C12.3874 6.97607 12.0929 6.01411 12.0929 6.01411C12.0929 6.01411 12.9245 5.63565 13.4306 5.79153Z" fill="#78FF96"/>
<path d="M15.8687 5.7141C16.5579 6.09342 16.5425 7.61261 16.5425 7.61261C16.5425 7.61261 15.4589 7.53503 15.019 7.08448C14.6068 6.6623 14.5137 5.6606 14.5137 5.6606C14.5137 5.6606 15.4047 5.45876 15.8687 5.7141Z" fill="#D6E6A9"/>
<path d="M18.0115 4.68962C18.3294 5.40926 17.3956 6.60769 17.3956 6.60769C17.3956 6.60769 16.5812 5.88875 16.5048 5.26372C16.4332 4.67804 16.9667 3.82516 16.9667 3.82516C16.9667 3.82516 17.7976 4.20519 18.0115 4.68962Z" fill="#D6E6A9"/>
<path d="M14.909 3.1543C15.6885 3.26075 16.2197 4.6841 16.2197 4.6841C16.2197 4.6841 15.1806 5.00088 14.6082 4.73841C14.0719 4.49246 13.6252 3.59105 13.6252 3.59105C13.6252 3.59105 14.3843 3.08264 14.909 3.1543Z" fill="#78FF96"/>
<path d="M16.1994 1.33526C16.8593 1.76361 16.7337 3.27767 16.7337 3.27767C16.7337 3.27767 15.6586 3.12163 15.2525 2.64035C14.8721 2.18936 14.8519 1.18354 14.8519 1.18354C14.8519 1.18354 15.7552 1.04691 16.1994 1.33526Z" fill="#D6E6A9"/>
<path d="M18.6784 1.66033C19.0541 2.35156 18.2215 3.62236 18.2215 3.62236C18.2215 3.62236 17.351 2.97244 17.2237 2.35576C17.1044 1.7779 17.5664 0.884239 17.5664 0.884239C17.5664 0.884239 18.4256 1.19503 18.6784 1.66033Z" fill="#D6E6A9"/>
<path d="M20.4779 3.95541C20.317 4.7255 18.8599 5.15546 18.8599 5.15546C18.8599 5.15546 18.6168 4.09665 18.9189 3.54412C19.2019 3.02639 20.1324 2.64409 20.1324 2.64409C20.1324 2.64409 20.5863 3.43703 20.4779 3.95541Z" fill="#78FF96"/>
<path d="M23.1878 5.74948C22.4351 5.97831 21.3579 4.90692 21.3579 4.90692C21.3579 4.90692 22.1698 4.18509 22.7994 4.18453C23.3895 4.184 24.1718 4.81645 24.1718 4.81645C24.1718 4.81645 23.6945 5.59544 23.1878 5.74948Z" fill="#D6E6A9"/>
<path d="M22.431 7.0043C22.6767 7.75167 21.6298 8.85269 21.6298 8.85269C21.6298 8.85269 20.8899 8.0573 20.8751 7.42779C20.8613 6.8379 21.476 6.0415 21.476 6.0415C21.476 6.0415 22.2655 6.50122 22.431 7.0043Z" fill="#D6E6A9"/>
<path d="M24.8877 7.14019C24.2068 7.53427 22.9141 6.73605 22.9141 6.73605C22.9141 6.73605 23.5404 5.84845 24.1535 5.70463C24.7279 5.56987 25.6337 6.00774 25.6337 6.00774C25.6337 6.00774 25.346 6.87491 24.8877 7.14019Z" fill="#D6E6A9"/>
<path d="M28.0099 5.66737C27.9235 6.44934 26.5142 7.01699 26.5142 7.01699C26.5142 7.01699 26.1709 5.98635 26.4185 5.40742C26.6506 4.86494 27.5402 4.39521 27.5402 4.39521C27.5402 4.39521 28.068 5.141 28.0099 5.66737Z" fill="#78FF96"/>
<path d="M25.4637 3.31031C25.9964 3.88925 25.4983 5.32455 25.4983 5.32455C25.4983 5.32455 24.4958 4.90616 24.2221 4.33905C23.9657 3.80764 24.1962 2.82837 24.1962 2.82837C24.1962 2.82837 25.1052 2.9206 25.4637 3.31031Z" fill="#78FF96"/>
<path d="M25.5329 9.14836C24.7549 9.26535 23.8449 8.04877 23.8449 8.04877C23.8449 8.04877 24.7531 7.45261 25.3762 7.54358C25.96 7.62882 26.6421 8.36828 26.6421 8.36828C26.6421 8.36828 26.0566 9.0696 25.5329 9.14836Z" fill="#D6E6A9"/>
<path d="M23.809 9.20792C23.7654 9.99343 22.3892 10.6371 22.3892 10.6371C22.3892 10.6371 21.9901 9.62667 22.2059 9.0351C22.408 8.48077 23.2707 7.96325 23.2707 7.96325C23.2707 7.96325 23.8384 8.67916 23.809 9.20792Z" fill="#78FF96"/>
<path d="M20.7207 8.49504C21.2511 9.07613 20.7472 10.5094 20.7472 10.5094C20.7472 10.5094 19.7463 10.087 19.475 9.51875C19.2207 8.9863 19.4551 8.00798 19.4551 8.00798C19.4551 8.00798 20.3637 8.10388 20.7207 8.49504Z" fill="#D6E6A9"/>
<path d="M25.1576 10.9948C25.3749 11.7509 24.287 12.8115 24.287 12.8115C24.287 12.8115 23.5778 11.9886 23.5869 11.359C23.5954 10.769 24.2398 9.99648 24.2398 9.99648C24.2398 9.99648 25.0114 10.4858 25.1576 10.9948Z" fill="#D6E6A9"/>
<path d="M26.4387 9.80101C27.2072 9.96932 27.6232 11.4305 27.6232 11.4305C27.6232 11.4305 26.5621 11.6634 26.0125 11.3561C25.4975 11.0681 25.1241 10.1339 25.1241 10.1339C25.1241 10.1339 25.9214 9.68771 26.4387 9.80101Z" fill="#D6E6A9"/>
<path d="M27.268 12.4519C27.6428 13.1437 26.8084 14.4133 26.8084 14.4133C26.8084 14.4133 25.9388 13.7622 25.8123 13.1453C25.6938 12.5673 26.1571 11.6743 26.1571 11.6743C26.1571 11.6743 27.0158 11.9863 27.268 12.4519Z" fill="#D6E6A9"/>
<path d="M20.4804 6.54601C20.0677 7.21577 18.5511 7.12567 18.5511 7.12567C18.5511 7.12567 18.6818 6.04723 19.1535 5.63001C19.5954 5.23905 20.6005 5.19526 20.6005 5.19526C20.6005 5.19526 20.7583 6.09516 20.4804 6.54601Z" fill="#D6E6A9"/>
<path d="M28.7943 7.4464C28.955 8.21653 27.7917 9.19371 27.7917 9.19371C27.7917 9.19371 27.1453 8.32065 27.201 7.69342C27.2531 7.10569 27.9529 6.38294 27.9529 6.38294C27.9529 6.38294 28.6862 6.92798 28.7943 7.4464Z" fill="#D6E6A9"/>
<path d="M30.3051 5.93541C30.4658 6.70555 29.3025 7.68273 29.3025 7.68273C29.3025 7.68273 28.656 6.80966 28.7117 6.18244C28.7639 5.59471 29.4637 4.87195 29.4637 4.87195C29.4637 4.87195 30.1969 5.417 30.3051 5.93541Z" fill="#D6E6A9"/>
<path d="M30.0407 9.54347C30.0417 10.3302 28.7043 11.051 28.7043 11.051C28.7043 11.051 28.2485 10.0649 28.4303 9.46203C28.6006 8.89711 29.4325 8.33139 29.4325 8.33139C29.4325 8.33139 30.0399 9.01389 30.0407 9.54347Z" fill="#78FF96"/>
<path d="M31.9734 10.9237C31.4971 11.5498 29.9966 11.3116 29.9966 11.3116C29.9966 11.3116 30.2323 10.2511 30.7425 9.88211C31.2206 9.53631 32.2252 9.59116 32.2252 9.59116C32.2252 9.59116 32.2941 10.5022 31.9734 10.9237Z" fill="#78FF96"/>
<path d="M31.8176 7.46606C32.1012 8.1999 31.1119 9.35295 31.1119 9.35295C31.1119 9.35295 30.3324 8.5964 30.2855 7.96846C30.2416 7.38005 30.8147 6.55329 30.8147 6.55329C30.8147 6.55329 31.6267 6.97208 31.8176 7.46606Z" fill="#D6E6A9"/>
<path d="M34.0337 7.71622C33.9777 8.50095 32.5915 9.12276 32.5915 9.12276C32.5915 9.12276 32.2084 8.10619 32.4335 7.5181C32.6444 6.96704 33.5152 6.4632 33.5152 6.4632C33.5152 6.4632 34.0714 7.18799 34.0337 7.71622Z" fill="#78FF96"/>
<path d="M34.9476 10.0433C34.5241 10.7063 33.0092 10.5917 33.0092 10.5917C33.0092 10.5917 33.1574 9.51548 33.6357 9.10595C34.0839 8.7222 35.0895 8.69469 35.0895 8.69469C35.0895 8.69469 35.2327 9.59703 34.9476 10.0433Z" fill="#D6E6A9"/>
<path d="M33.8083 12.7279C33.0564 12.9593 31.9757 11.8915 31.9757 11.8915C31.9757 11.8915 32.7851 11.1669 33.4148 11.1643C34.0048 11.1618 34.7893 11.7916 34.7893 11.7916C34.7893 11.7916 34.3145 12.5722 33.8083 12.7279Z" fill="#D6E6A9"/>
<path d="M33.5476 15.9673C32.9834 15.419 33.4007 13.9582 33.4007 13.9582C33.4007 13.9582 34.425 14.32 34.7299 14.871C35.0155 15.3872 34.84 16.3778 34.84 16.3778C34.84 16.3778 33.9273 16.3364 33.5476 15.9673Z" fill="#D6E6A9"/>
<path d="M32.0834 15.9111C31.5479 16.4875 30.0781 16.1032 30.0781 16.1032C30.0781 16.1032 30.4167 15.071 30.9607 14.7538C31.4704 14.4566 32.4647 14.6098 32.4647 14.6098C32.4647 14.6098 32.4439 15.5232 32.0834 15.9111Z" fill="#78FF96"/>
<path d="M33.1515 18.1283C32.4774 17.7227 32.5513 16.2052 32.5513 16.2052C32.5513 16.2052 33.6311 16.3245 34.0533 16.7917C34.449 17.2294 34.5034 18.234 34.5034 18.234C34.5034 18.234 33.6053 18.4013 33.1515 18.1283Z" fill="#D6E6A9"/>
<path d="M31.7055 19.6633C31.227 19.0388 31.8522 17.6541 31.8522 17.6541C31.8522 17.6541 32.8131 18.161 33.0346 18.7504C33.2422 19.3027 32.9246 20.2573 32.9246 20.2573C32.9246 20.2573 32.0276 20.0837 31.7055 19.6633Z" fill="#D6E6A9"/>
<path d="M30.8199 18.1833C30.1112 18.5247 28.8825 17.6311 28.8825 17.6311C28.8825 17.6311 29.5742 16.7934 30.1963 16.6963C30.7793 16.6054 31.6494 17.1104 31.6494 17.1104C31.6494 17.1104 31.297 17.9534 30.8199 18.1833Z" fill="#D6E6A9"/>
<path d="M29.9518 15.1351C29.6994 15.8802 28.2012 16.1319 28.2012 16.1319C28.2012 16.1319 28.0872 15.0515 28.4535 14.5393C28.7967 14.0594 29.7665 13.7917 29.7665 13.7917C29.7665 13.7917 30.1217 14.6335 29.9518 15.1351Z" fill="#D6E6A9"/>
<path d="M29.9077 20.2275C29.3508 20.7832 27.8965 20.3435 27.8965 20.3435C27.8965 20.3435 28.2741 19.3249 28.8296 19.0285C29.3502 18.7508 30.338 18.9415 30.338 18.9415C30.338 18.9415 30.2826 19.8535 29.9077 20.2275Z" fill="#78FF96"/>
<path d="M31.5718 20.7715C31.7959 21.5257 30.7178 22.5961 30.7178 22.5961C30.7178 22.5961 30.0011 21.7797 30.0045 21.1501C30.0076 20.56 30.645 19.7817 30.645 19.7817C30.645 19.7817 31.421 20.2639 31.5718 20.7715Z" fill="#D6E6A9"/>
<path d="M29.652 22.7791C29.2275 23.4415 27.7128 23.3247 27.7128 23.3247C27.7128 23.3247 27.8625 22.2488 28.3414 21.8399C28.7901 21.4568 29.7958 21.4307 29.7958 21.4307C29.7958 21.4307 29.9377 22.3332 29.652 22.7791Z" fill="#D6E6A9"/>
<path d="M31.5414 13.9828C30.7556 13.9452 30.1014 12.5739 30.1014 12.5739C30.1014 12.5739 31.1087 12.1671 31.7019 12.3783C32.2578 12.5763 32.7819 13.435 32.7819 13.435C32.7819 13.435 32.0704 14.0081 31.5414 13.9828Z" fill="#D6E6A9"/>
<path d="M36.682 24.1951C35.9998 24.5869 34.7098 23.7843 34.7098 23.7843C34.7098 23.7843 35.3391 22.8988 35.9526 22.7571C36.5275 22.6243 37.4318 23.0652 37.4318 23.0652C37.4318 23.0652 37.1412 23.9314 36.682 24.1951Z" fill="#D6E6A9"/>
<path d="M39.2085 25.0412C38.5647 25.4934 37.2071 24.8115 37.2071 24.8115C37.2071 24.8115 37.7533 23.8724 38.3514 23.6754C38.9118 23.4909 39.8524 23.8477 39.8524 23.8477C39.8524 23.8477 39.6418 24.7368 39.2085 25.0412Z" fill="#D6E6A9"/>
<path d="M37.0584 30.663C37.254 29.901 38.7291 29.5374 38.7291 29.5374C38.7291 29.5374 38.924 30.6061 38.5973 31.1444C38.2911 31.6488 37.3442 31.9886 37.3442 31.9886C37.3442 31.9886 36.9267 31.176 37.0584 30.663Z" fill="#D6E6A9"/>
<path d="M36.3796 29.3644C35.6134 29.186 35.2167 27.7194 35.2167 27.7194C35.2167 27.7194 36.2807 27.5005 36.8262 27.815C37.3374 28.1097 37.6985 29.0487 37.6985 29.0487C37.6985 29.0487 36.8954 29.4844 36.3796 29.3644Z" fill="#78FF96"/>
<path d="M34.9863 31.3928C35.0034 30.6063 36.3571 29.9166 36.3571 29.9166C36.3571 29.9166 36.79 30.913 36.5943 31.5115C36.411 32.0723 35.5662 32.6186 35.5662 32.6186C35.5662 32.6186 34.9748 31.9223 34.9863 31.3928Z" fill="#D6E6A9"/>
<path d="M32.9357 30.9004C33.24 30.1749 34.7523 30.0295 34.7523 30.0295C34.7523 30.0295 34.7898 31.1152 34.3883 31.6003C34.0121 32.0549 33.0259 32.2534 33.0259 32.2534C33.0259 32.2534 32.7309 31.3887 32.9357 30.9004Z" fill="#78FF96"/>
<path d="M33.7804 29.3966C33.132 28.9511 33.2972 27.4409 33.2972 27.4409C33.2972 27.4409 34.3678 27.6249 34.7611 28.1167C35.1297 28.5774 35.1236 29.5834 35.1236 29.5834C35.1236 29.5834 34.217 29.6964 33.7804 29.3966Z" fill="#D6E6A9"/>
<path d="M35.9943 27.1285C35.2223 27.2797 34.2595 26.1044 34.2595 26.1044C34.2595 26.1044 35.1405 25.4688 35.767 25.5322C36.354 25.5916 37.0681 26.3003 37.0681 26.3003C37.0681 26.3003 36.514 27.0267 35.9943 27.1285Z" fill="#78FF96"/>
<path d="M31.5529 29.6206C30.7939 29.4133 30.453 27.9327 30.453 27.9327C30.453 27.9327 31.5246 27.7543 32.0578 28.0893C32.5575 28.4031 32.8827 29.3551 32.8827 29.3551C32.8827 29.3551 32.0637 29.7601 31.5529 29.6206Z" fill="#D6E6A9"/>
<path d="M31.9072 31.3351C31.3641 31.9043 29.8995 31.5004 29.8995 31.5004C29.8995 31.5004 30.2519 30.4728 30.8 30.1629C31.3137 29.8726 32.3058 30.039 32.3058 30.039C32.3058 30.039 32.2728 30.952 31.9072 31.3351Z" fill="#78FF96"/>
<path d="M29.2114 30.6664C28.4257 30.6271 27.7744 29.2545 27.7744 29.2545C27.7744 29.2545 28.7826 28.8498 29.3754 29.0623C29.9308 29.2614 30.4531 30.1213 30.4531 30.1213C30.4531 30.1213 29.7403 30.6928 29.2114 30.6664Z" fill="#D6E6A9"/>
<path d="M37.7843 27.9358C37.4266 27.2352 38.2916 25.9862 38.2916 25.9862C38.2916 25.9862 39.1451 26.6583 39.2565 27.2781C39.3609 27.8588 38.876 28.7403 38.876 28.7403C38.876 28.7403 38.0252 28.4075 37.7843 27.9358Z" fill="#D6E6A9"/>
<path d="M14.5454 42C16.8926 41.7429 17.42 41.9244 18.0427 37.5533C18.3726 34.1375 18.4779 32.2377 16.5318 29.2434C13.7475 27.3459 12.3023 26.0771 8.22184 26.4734C7.15184 26.6835 6.63684 26.8844 5.70367 27.2288C6.27586 26.5724 6.60344 26.2083 7.97002 25.9697C6.58972 25.273 6.30657 24.6459 5.95549 23.4516C7.16841 24.9127 7.93534 25.4206 9.48092 25.7179C13.4199 25.4025 15.1888 26.549 18.2945 28.7397C17.6595 23.1636 16.6981 20.5787 12.2509 18.4152C13.1853 18.2356 13.6721 18.4213 14.5173 18.9189C14.4547 17.2981 14.7681 16.6507 15.5245 15.6453C15.058 17.0794 14.7691 18.4152 15.5245 19.1707C15.8984 19.5446 17.5163 21.2387 18.5463 23.1998C19.3564 24.7419 20.0736 26.3241 20.1608 27.4113C20.4935 25.9646 21.4332 23.0436 22.3236 22.1925C23.3308 20.9334 24.3381 20.178 24.5899 18.4152C24.8417 16.6525 24.5899 15.6453 24.5899 15.6453C25.3642 16.7388 25.5167 17.441 25.3454 18.9189C26.2481 18.4048 26.7932 18.2705 27.8635 18.4152C25.2262 19.4518 24.4714 20.6311 23.079 22.6961C21.6867 24.7611 21.5681 28.7397 21.5681 28.7397C24.2642 26.3173 26.2088 25.7899 30.1299 25.7179C31.9747 25.2714 33.0066 25.0172 34.159 23.4516C33.6698 24.5413 33.3577 25.1389 32.1444 25.9697C33.3221 26.0681 34.159 27.2288 34.159 27.2288C32.6481 25.9697 23.6494 25.8218 22.5754 31.0061C22.0753 33.2125 22.0718 33.5242 22.0718 37.3015C22.0718 41.0787 22.6739 41.4125 25.4545 42H14.5454Z" fill="white"/>
<path d="M4.78224 9.59112C5.56634 9.65532 6.17369 11.0479 6.17369 11.0479C6.17369 11.0479 5.15319 11.4203 4.56748 11.1892C4.01864 10.9725 3.52389 10.0966 3.52389 10.0966C3.52389 10.0966 4.25443 9.54791 4.78224 9.59112Z" fill="#78FF96"/>
<path d="M11.6405 6.02445C12.069 6.68425 11.3381 8.01616 11.3381 8.01616C11.3381 8.01616 10.4195 7.43617 10.2445 6.83131C10.0804 6.26453 10.4713 5.33753 10.4713 5.33753C10.4713 5.33753 11.352 5.58031 11.6405 6.02445Z" fill="#D6E6A9"/>
<path d="M22.0178 10.9118C22.7276 11.251 22.7993 12.7686 22.7993 12.7686C22.7993 12.7686 21.713 12.7532 21.248 12.3286C20.8123 11.9307 20.662 10.936 20.662 10.936C20.662 10.936 21.54 10.6834 22.0178 10.9118Z" fill="#D6E6A9"/>
<path d="M23.5288 13.4298C24.2386 13.7691 24.3102 15.2866 24.3102 15.2866C24.3102 15.2866 23.224 15.2713 22.759 14.8466C22.3233 14.4488 22.1729 13.4541 22.1729 13.4541C22.1729 13.4541 23.051 13.2015 23.5288 13.4298Z" fill="#D6E6A9"/>
<path d="M27.7251 16.0765C27.8085 16.8588 26.5538 17.7155 26.5538 17.7155C26.5538 17.7155 25.9973 16.7825 26.1151 16.1639C26.2254 15.5843 26.9936 14.9347 26.9936 14.9347C26.9936 14.9347 27.669 15.5499 27.7251 16.0765Z" fill="#D6E6A9"/>
<path d="M29.3931 12.5702C29.4764 13.3525 28.2218 14.2092 28.2218 14.2092C28.2218 14.2092 27.6653 13.2762 27.783 12.6576C27.8934 12.078 28.6615 11.4283 28.6615 11.4283C28.6615 11.4283 29.337 12.0436 29.3931 12.5702Z" fill="#78FF96"/>
<path d="M22.7675 17.0012C23.4406 17.4085 23.3627 18.9258 23.3627 18.9258C23.3627 18.9258 22.2833 18.8038 21.8623 18.3355C21.4677 17.8967 21.4159 16.8921 21.4159 16.8921C21.4159 16.8921 22.3145 16.727 22.7675 17.0012Z" fill="#D6E6A9"/>
<path d="M27.3172 22.1096C26.6142 22.4628 25.3709 21.5898 25.3709 21.5898C25.3709 21.5898 26.0484 20.7407 26.6689 20.6332C27.2503 20.5326 28.1286 21.0231 28.1286 21.0231C28.1286 21.0231 27.7904 21.8718 27.3172 22.1096Z" fill="#78FF96"/>
<path d="M25.5888 23.7832C24.8859 24.1364 23.6425 23.2634 23.6425 23.2634C23.6425 23.2634 24.3201 22.4142 24.9406 22.3068C25.522 22.2062 26.4003 22.6967 26.4003 22.6967C26.4003 22.6967 26.062 23.5454 25.5888 23.7832Z" fill="#D6E6A9"/>
<path d="M24.3581 25.9095C23.9145 26.5593 22.4038 26.3984 22.4038 26.3984C22.4038 26.3984 22.5848 25.3273 23.0754 24.9325C23.5351 24.5626 24.5411 24.5659 24.5411 24.5659C24.5411 24.5659 24.6567 25.4721 24.3581 25.9095Z" fill="#D6E6A9"/>
<path d="M27.4539 24.5008C27.3252 25.2769 25.8871 25.7671 25.8871 25.7671C25.8871 25.7671 25.6003 24.7193 25.8791 24.1547C26.1404 23.6256 27.0542 23.205 27.0542 23.205C27.0542 23.205 27.5406 23.9784 27.4539 24.5008Z" fill="#D6E6A9"/>
<path d="M30.6359 24.8435C30.042 25.3595 28.6215 24.8207 28.6215 24.8207C28.6215 24.8207 29.0682 23.8305 29.6429 23.5731C30.1814 23.3319 31.1537 23.5902 31.1537 23.5902C31.1537 23.5902 31.0356 24.4962 30.6359 24.8435Z" fill="#D6E6A9"/>
<path d="M33.3386 22.6063C33.3066 23.3924 31.94 24.0563 31.94 24.0563C31.94 24.0563 31.5261 23.0519 31.7331 22.4572C31.927 21.8999 32.782 21.3697 32.782 21.3697C32.782 21.3697 33.3601 22.0771 33.3386 22.6063Z" fill="#78FF96"/>
<path d="M36.0392 21.743C36.0072 22.5291 34.6407 23.193 34.6407 23.193C34.6407 23.193 34.2267 22.1886 34.4337 21.5939C34.6277 21.0367 35.4826 20.5064 35.4826 20.5064C35.4826 20.5064 36.0608 21.2139 36.0392 21.743Z" fill="#D6E6A9"/>
<path d="M35.0317 19.7281C34.9997 20.5142 33.6332 21.1781 33.6332 21.1781C33.6332 21.1781 33.2192 20.1737 33.4262 19.579C33.6201 19.0218 34.4751 18.4915 34.4751 18.4915C34.4751 18.4915 35.0532 19.199 35.0317 19.7281Z" fill="#D6E6A9"/>
<path d="M38.0926 22.5311C37.3372 22.7508 36.2731 21.6664 36.2731 21.6664C36.2731 21.6664 37.0936 20.9545 37.7233 20.9615C38.3133 20.9681 39.0879 21.61 39.0879 21.61C39.0879 21.61 38.6012 22.3832 38.0926 22.5311Z" fill="#D6E6A9"/>
<path d="M35.9067 20.4321C35.3894 19.8393 35.9253 18.4177 35.9253 18.4177C35.9253 18.4177 36.9164 18.8624 37.175 19.4365C37.4173 19.9745 37.161 20.9474 37.161 20.9474C37.161 20.9474 36.2548 20.8312 35.9067 20.4321Z" fill="#78FF96"/>
</svg>
